<svg height="512pt" viewBox="-74 0 512 512" width="512pt" xmlns="http://www.w3.org/2000/svg"><path d="m356.054688 181.816406c0 96.230469-78.007813 174.238282-174.238282 174.238282-96.226562 0-174.234375-78.007813-174.234375-174.238282 0-96.226562 78.007813-174.234375 174.234375-174.234375 96.230469 0 174.238282 78.007813 174.238282 174.234375zm0 0" fill="#ffe45c"/><path d="m324.375 181.816406c0 78.734375-63.824219 142.558594-142.558594 142.558594-78.730468 0-142.554687-63.824219-142.554687-142.558594 0-78.730468 63.824219-142.554687 142.554687-142.554687 78.734375 0 142.558594 63.824219 142.558594 142.554687zm0 0" fill="#ffe45c"/><path d="m118.460938 181.816406c0-64.972656 43.511718-119.691406 102.957031-136.863281-12.585938-3.636719-25.84375-5.691406-39.601563-5.691406-78.730468 0-142.554687 63.824219-142.554687 142.554687 0 78.734375 63.824219 142.558594 142.554687 142.558594 13.757813 0 27.015625-2.054688 39.601563-5.691406-59.445313-17.171875-102.957031-71.890625-102.957031-136.867188zm0 0" fill="#ffb13b"/><path d="m261.015625 337.046875v161.5625l-79.199219-47.519531v-95.035156c28.511719 0 55.441406-6.8125 79.199219-19.007813zm0 0" fill="#96e8ff"/><path d="m181.816406 356.054688v95.035156l-79.199218 47.519531v-158.394531l1.269531-2.535156c23.441406 11.800781 49.894531 18.375 77.929687 18.375zm0 0" fill="#ff6c52"/><path d="m203.835938 164.234375-22.019532 17.582031-22.015625-17.582031 22.015625-22.015625zm0 0" fill="#cdd2e1"/><path d="m229.335938 150.136719v71.28125h-95.039063v-71.28125h7.921875l17.582031 14.097656 22.015625 17.582031 22.019532-17.582031 17.582031-14.097656zm0 0" fill="#e9edf5"/><path d="m134.636719 379.8125h15.164062v15.839844h-15.164062zm0 0" fill="#fff"/><path d="m213.835938 411.492188h15.164062v15.839843h-15.164062zm0 0" fill="#fff"/><path d="m86.441406 181.816406h-15.164062c0-60.953125 49.589844-110.539062 110.539062-110.539062v15.164062c-52.589844 0-95.375 42.785156-95.375 95.375zm0 0" fill="#fff"/><path d="m181.816406 292.355469v-15.164063c52.589844 0 95.378906-42.78125 95.378906-95.375h15.160157c0 60.953125-49.585938 110.539063-110.539063 110.539063zm0 0" fill="#fff"/><g fill="#231f20"><path d="m181.816406 0c-32.285156 0-64.003906 8.574219-91.714844 24.796875l7.660157 13.085937c25.390625-14.863281 54.457031-22.71875 84.054687-22.71875 91.894532 0 166.65625 74.761719 166.65625 166.652344 0 62.917969-34.835937 119.8125-90.917968 148.484375-1.335938.683594-2.679688 1.347657-4.027344 1.992188h-.09375v.046875c-22.339844 10.703125-46.40625 16.132812-71.617188 16.132812-26.292968 0-51.367187-5.910156-74.535156-17.574218-27.246094-13.640626-50.257812-34.507813-66.546875-60.34375-16.730469-26.535157-25.570313-57.21875-25.570313-88.734376 0-50.03125 22.1875-96.972656 60.871094-128.785156l-9.632812-11.710937c-42.199219 34.707031-66.402344 85.914062-66.402344 140.492187 0 34.382813 9.648438 67.867188 27.90625 96.824219 16.667969 26.441406 39.796875 48.109375 67.132812 62.96875v170.390625l86.78125-52.066406 86.777344 52.066406v-170.40625c27.550782-14.992188 50.835938-36.875 67.511719-63.5625 18.007813-28.8125 27.527344-62.082031 27.527344-96.214844-.003907-100.253906-81.5625-181.816406-181.820313-181.816406zm7.582032 446.800781v-59.070312h-15.164063v59.066406l-64.03125 38.421875v-136.230469c22.527344 9.722657 46.570313 14.644531 71.613281 14.644531 25.0625 0 49.09375-4.929687 71.617188-14.648437v136.234375zm0 0"/><path d="m290.25 285.652344c26.894531-28.074219 41.707031-64.953125 41.707031-103.835938 0-82.785156-67.351562-150.136718-150.140625-150.136718-82.785156 0-150.136718 67.351562-150.136718 150.136718 0 82.789063 67.351562 150.136719 150.136718 150.136719 33.550782 0 65.277344-10.820313 91.757813-31.296875l-9.273438-11.996094c-23.800781 18.402344-52.324219 28.132813-82.484375 28.132813-74.425781 0-134.972656-60.550781-134.972656-134.976563 0-74.425781 60.546875-134.972656 134.972656-134.972656 74.425782 0 134.976563 60.546875 134.976563 134.972656 0 34.957032-13.316407 68.109375-37.492188 93.347656zm0 0"/><path d="m134.636719 411.492188h15.164062v15.839843h-15.164062zm0 0"/><path d="m213.835938 379.8125h15.164062v15.839844h-15.164062zm0 0"/><path d="m236.917969 142.554688h-18.164063l-14.375 11.503906-22.5625-22.5625-22.5625 22.5625-14.371094-11.503906h-18.167968v86.445312h110.203125zm-55.101563 10.386718 10.652344 10.652344-10.652344 8.523438-10.648437-8.523438zm39.9375 60.894532h-79.875v-54.25l39.9375 31.933593 39.9375-31.933593zm0 0"/><path d="m197.65625 71.277344h15.839844v15.164062h-15.839844zm0 0"/><path d="m150.136719 277.191406h15.839843v15.164063h-15.839843zm0 0"/><path d="m134.296875 261.355469h15.839844v15.160156h-15.839844zm0 0"/><path d="m213.496094 87.117188h15.839844v15.164062h-15.839844zm0 0"/></g><path d="m276.855469 150.476562h15.839843v15.164063h-15.839843zm0 0" fill="#fff"/><path d="m70.941406 197.996094h15.835938v15.164062h-15.835938zm0 0" fill="#fff"/></svg>