<svg height="512pt" viewBox="-48 0 512 512.00101" width="512pt" xmlns="http://www.w3.org/2000/svg"><path d="m247.773438 108.09375c91.359374 18.578125 160.136718 99.367188 160.136718 196.171875 0 110.574219-89.597656 200.175781-200.171875 200.175781-110.578125 0-200.175781-89.601562-200.175781-200.175781 0-96.804687 68.78125-177.59375 160.140625-196.171875v-44.039062h80.070313zm0 0" fill="#cdd2e1"/><path d="m63.613281 304.265625c0-96.804687 68.777344-177.59375 160.136719-196.171875v-44.039062h-56.046875v44.039062c-91.359375 18.578125-160.140625 99.367188-160.140625 196.171875 0 110.574219 89.597656 200.175781 200.175781 200.175781 9.515625 0 18.863281-.710937 28.023438-1.992187-97.296875-13.632813-172.148438-97.125-172.148438-198.183594zm0 0" fill="#afb4c8"/><path d="m311.828125 280.242188c0 40.117187-22.738281 74.945312-56.050781 92.320312v51.808594h-96.082032v-51.808594c-33.308593-17.375-56.046874-52.203125-56.046874-92.320312 0-57.488282 46.597656-104.089844 104.089843-104.089844 57.488281 0 104.089844 46.601562 104.089844 104.089844zm0 0" fill="#95e8c8"/><path d="m167.703125 280.242188c0-46.304688 30.253906-85.503907 72.0625-99.015626-10.097656-3.265624-20.84375-5.074218-32.027344-5.074218-57.488281 0-104.089843 46.601562-104.089843 104.089844 0 40.117187 22.738281 74.945312 56.046874 92.320312v51.808594h64.058594v-51.808594c-33.3125-17.375-56.050781-52.203125-56.050781-92.320312zm0 0" fill="#06ccab"/><path d="m247.773438 240.210938c13.289062 0 24.019531 10.726562 24.019531 24.019531 0 13.289062-10.730469 24.019531-24.019531 24.019531-13.292969 0-24.023438-10.726562-24.023438-24.019531s10.730469-24.019531 24.023438-24.019531zm0 0" fill="#e9edf5"/><path d="m167.703125 240.210938c13.289063 0 24.019531 10.726562 24.019531 24.019531 0 13.289062-10.726562 24.019531-24.019531 24.019531s-24.023437-10.726562-24.023437-24.019531 10.730468-24.019531 24.023437-24.019531zm0 0" fill="#e9edf5"/><path d="m191.722656 88.523438h32.027344v15.121093h-32.027344zm0 0" fill="#fff"/><path d="m231.757812 312.71875h16.011719v15.121094h-16.011719zm0 0" fill="#fff"/><path d="m167.703125 312.71875h16.011719v15.121094h-16.011719zm0 0" fill="#fff"/><path d="m183.714844 384.78125h48.042968v15.121094h-48.042968zm0 0" fill="#fff"/><path d="m47.597656 272.683594h16.011719v15.121094h-16.011719zm0 0" fill="#fff"/><path d="m351.863281 272.683594h16.015625v15.121094h-16.015625zm0 0" fill="#fff"/><g fill="#231f20"><path d="m367.929688 172.027344c-28.925782-34.996094-68.722657-59.695313-112.597657-70.015625v-45.515625h-40.035156v-11.394532c8.40625-3.886718 24.023437-13.238281 24.023437-29.085937v-16.015625h-15.125v16.015625c0 8.542969-13.972656 15.195313-18.847656 16.84375l-5.171875 1.726563v21.90625h-40.035156v45.515624c-21.335937 5.003907-41.640625 13.335938-60.433594 24.808594l7.878907 12.90625c19.058593-11.632812 39.792968-19.78125 61.625-24.21875l6.054687-1.230468v-42.65625h64.945313v42.65625l6.054687 1.230468c42.886719 8.71875 81.953125 32.214844 110.007813 66.15625 28.421874 34.390625 44.078124 77.929688 44.078124 122.605469 0 51.460937-20.035156 99.832031-56.40625 136.207031-36.375 36.375-84.746093 56.40625-136.207031 56.40625-51.460937 0-99.832031-20.03125-136.207031-56.40625s-56.40625-84.746094-56.40625-136.207031c0-30.804687 7.058594-60.234375 20.972656-87.472656 13.28125-25.992188 32.671875-49.027344 56.074219-66.609375l-9.082031-12.09375c-25.234375 18.960937-46.140625 43.792968-60.457032 71.820312-15.019531 29.390625-22.632812 61.136719-22.632812 94.355469 0 55.5 21.605469 107.667969 60.835938 146.898437 39.230468 39.230469 91.402343 60.835938 146.902343 60.835938 55.496094 0 107.667969-21.605469 146.898438-60.835938 39.230469-39.230468 60.835937-91.398437 60.835937-146.898437 0-48.183594-16.882812-95.148437-47.542968-132.238281zm0 0"/><path d="m207.738281 168.589844c-61.566406 0-111.652343 50.089844-111.652343 111.652344 0 40.195312 21.355468 76.867187 56.046874 96.800781v54.886719h47.597657v-15.121094h-32.472657v-48.828125l-4.066406-2.121094c-32.0625-16.726563-51.984375-49.53125-51.984375-85.613281 0-53.226563 43.304688-96.53125 96.53125-96.53125 53.226563 0 96.527344 43.304687 96.527344 96.53125 0 36.082031-19.917969 68.890625-51.984375 85.613281l-4.0625 2.121094v48.828125h-24.46875v15.121094h39.589844v-54.886719c34.691406-19.933594 56.050781-56.605469 56.050781-96.800781-.003906-61.5625-50.089844-111.652344-111.652344-111.652344zm0 0"/><path d="m136.121094 264.230469c0 17.414062 14.167968 31.582031 31.582031 31.582031s31.582031-14.167969 31.582031-31.582031c0-17.414063-14.167968-31.582031-31.582031-31.582031s-31.582031 14.167968-31.582031 31.582031zm48.039062 0c0 9.074219-7.382812 16.460937-16.457031 16.460937-9.078125 0-16.460937-7.386718-16.460937-16.460937s7.382812-16.460938 16.460937-16.460938c9.074219 0 16.457031 7.386719 16.457031 16.460938zm0 0"/><path d="m247.773438 295.8125c17.414062 0 31.582031-14.167969 31.582031-31.582031 0-17.414063-14.167969-31.582031-31.582031-31.582031-17.417969 0-31.582032 14.167968-31.582032 31.582031 0 17.414062 14.164063 31.582031 31.582032 31.582031zm0-48.042969c9.074218 0 16.457031 7.386719 16.457031 16.460938s-7.382813 16.460937-16.457031 16.460937c-9.078126 0-16.460938-7.386718-16.460938-16.460937s7.382812-16.460938 16.460938-16.460938zm0 0"/><path d="m199.730469 312.71875h16.015625v15.121094h-16.015625zm0 0"/><path d="m296.476562 418.40625 9.289063 11.929688c39.191406-30.511719 61.664063-76.464844 61.664063-126.070313h-15.121094c0 44.910156-20.351563 86.511719-55.832032 114.140625zm0 0"/><path d="m115.277344 434.484375 8.765625-12.324219c-38.121094-27.113281-60.875-71.183594-60.875-117.894531h-15.125c0 51.59375 25.136719 100.277344 67.234375 130.21875zm0 0"/><path d="m47.597656 240.65625h16.011719v15.121094h-16.011719zm0 0"/><path d="m63.613281 224.640625h16.011719v15.121094h-16.011719zm0 0"/><path d="m351.863281 240.65625h16.015625v15.121094h-16.015625zm0 0"/><path d="m335.847656 224.640625h16.015625v15.121094h-16.015625zm0 0"/></g></svg>