<svg xmlns="http://www.w3.org/2000/svg" width="725.6" height="198.3" viewBox="0 0 725.6 198.3"><g transform="translate(-0.9 -0.9)"><path d="M106.8,84.1c-5.7,0-10.2,4.9-10.2,11s4.6,11,10.2,11c5.7,0,10.2-4.9,10.2-11S112.4,84.1,106.8,84.1Zm-36.5,0c-5.7,0-10.2,4.9-10.2,11s4.6,11,10.2,11c5.7,0,10.2-4.9,10.2-11C80.6,89,76,84.1,70.3,84.1Z" fill="#fff"/><path d="M155.4.9H21.4A20.528,20.528,0,0,0,.9,21.4v134a20.528,20.528,0,0,0,20.5,20.5H134.8l-5.3-18.3,12.8,11.8,12.1,11.1L176,199.2V21.4A20.679,20.679,0,0,0,155.4.9ZM116.8,130.4s-3.6-4.3-6.6-8c13.1-3.7,18.1-11.8,18.1-11.8a57.224,57.224,0,0,1-11.5,5.9,71.712,71.712,0,0,1-14.5,4.3,70.052,70.052,0,0,1-25.9-.1,76.133,76.133,0,0,1-14.7-4.3,58.6,58.6,0,0,1-7.3-3.4c-.3-.2-.6-.3-.9-.5-.2-.1-.3-.2-.4-.2-1.8-1-2.8-1.7-2.8-1.7s4.8,7.9,17.5,11.7c-3,3.8-6.7,8.2-6.7,8.2-22.1-.7-30.5-15.1-30.5-15.1C30.6,83.5,45,57.6,45,57.6,59.4,46.9,73,47.2,73,47.2l1,1.2c-18,5.1-26.2,13-26.2,13s2.2-1.2,5.9-2.8a78.353,78.353,0,0,1,22.7-6.3,9.853,9.853,0,0,1,1.7-.2,84.612,84.612,0,0,1,20.2-.2,83.129,83.129,0,0,1,30.1,9.5s-7.9-7.5-24.9-12.6l1.4-1.6s13.7-.3,28,10.4c0,0,14.4,25.9,14.4,57.8,0-.1-8.4,14.3-30.5,15Zm151-86.7H234.6V81l22.1,19.9V64.7h11.8c7.5,0,11.2,3.6,11.2,9.4v27.7c0,5.8-3.5,9.7-11.2,9.7h-34v21.1h33.2c17.8.1,34.5-8.8,34.5-29.2V73.6c.1-20.8-16.6-29.9-34.4-29.9Zm174,59.7V72.8c0-11,19.8-13.5,25.8-2.5l18.3-7.4c-7.2-15.8-20.3-20.4-31.2-20.4-17.8,0-35.4,10.3-35.4,30.3v30.6c0,20.2,17.6,30.3,35,30.3a35.706,35.706,0,0,0,32-19.9l-19.6-9C461.9,117.1,441.8,114.1,441.8,103.4ZM381.3,77c-6.9-1.5-11.5-4-11.8-8.3.4-10.3,16.3-10.7,25.6-.8l14.7-11.3c-9.2-11.2-19.6-14.2-30.3-14.2-16.3,0-32.1,9.2-32.1,26.6,0,16.9,13,26,27.3,28.2,7.3,1,15.4,3.9,15.2,8.9-.6,9.5-20.2,9-29.1-1.8l-14.2,13.3c8.3,10.7,19.6,16.1,30.2,16.1,16.3,0,34.4-9.4,35.1-26.6C412.9,85.4,397.1,79.9,381.3,77Zm-67,55.5h22.4V43.7H314.3ZM692,43.7H658.8V81l22.1,19.9V64.7h11.8c7.5,0,11.2,3.6,11.2,9.4v27.7c0,5.8-3.5,9.7-11.2,9.7h-34v21.1H692c17.8.1,34.5-8.8,34.5-29.2V73.6C726.5,52.8,709.8,43.7,692,43.7ZM529.1,42.5c-18.4,0-36.7,10-36.7,30.5v30.3c0,20.3,18.4,30.5,36.9,30.5,18.4,0,36.7-10.2,36.7-30.5V73C566,52.6,547.5,42.5,529.1,42.5Zm14.4,60.8c0,6.4-7.2,9.7-14.3,9.7-7.2,0-14.4-3.1-14.4-9.7V73c0-6.5,7-10,14-10,7.3,0,14.7,3.1,14.7,10v30.3ZM646.4,73c-.5-20.8-14.7-29.2-33-29.2H577.9v88.8h22.7V104.4h4l20.6,28.2h28L629,102.1C639.7,98.7,646.4,89.4,646.4,73ZM613.8,85H600.6V64.7h13.2C627.9,64.7,627.9,85,613.8,85Z" fill="#fff"/></g></svg>