<?xml version="1.0" encoding="utf-8"?>
<!-- Generator: Adobe Illustrator 23.0.1, SVG Export Plug-In . SVG Version: 6.00 Build 0)  -->
<svg version="1.1" id="Layer_1" xmlns="http://www.w3.org/2000/svg" xmlns:xlink="http://www.w3.org/1999/xlink" x="0px" y="0px"
	 viewBox="0 0 30 30" enable-background="new 0 0 30 30" xml:space="preserve">
<g>
	<g>
		
			<line fill="none" stroke="#1E5AFE" stroke-width="0.25" stroke-linecap="round" stroke-linejoin="round" stroke-miterlimit="10" x1="10.5" y1="6.4" x2="9.7" y2="5.6"/>
		
			<line fill="none" stroke="#1E5AFE" stroke-width="0.25" stroke-linecap="round" stroke-linejoin="round" stroke-miterlimit="10" x1="9.7" y1="6.4" x2="10.5" y2="5.6"/>
	</g>
	<g>
		
			<line fill="none" stroke="#1E5AFE" stroke-width="0.25" stroke-linecap="round" stroke-linejoin="round" stroke-miterlimit="10" x1="11.4" y1="17.9" x2="10.6" y2="17.1"/>
		
			<line fill="none" stroke="#1E5AFE" stroke-width="0.25" stroke-linecap="round" stroke-linejoin="round" stroke-miterlimit="10" x1="10.7" y1="17.9" x2="11.4" y2="17.1"/>
	</g>
	<g>
		
			<line fill="none" stroke="#1E5AFE" stroke-width="0.25" stroke-linecap="round" stroke-linejoin="round" stroke-miterlimit="10" x1="1.7" y1="24.4" x2="0.9" y2="23.6"/>
		
			<line fill="none" stroke="#1E5AFE" stroke-width="0.25" stroke-linecap="round" stroke-linejoin="round" stroke-miterlimit="10" x1="0.9" y1="24.4" x2="1.7" y2="23.6"/>
	</g>
	<g>
		
			<line fill="none" stroke="#1E5AFE" stroke-width="0.25" stroke-linecap="round" stroke-linejoin="round" stroke-miterlimit="10" x1="1.3" y1="5.3" x2="0.5" y2="4.6"/>
		
			<line fill="none" stroke="#1E5AFE" stroke-width="0.25" stroke-linecap="round" stroke-linejoin="round" stroke-miterlimit="10" x1="0.5" y1="5.3" x2="1.3" y2="4.5"/>
	</g>
	<g>
		
			<line fill="none" stroke="#1E5AFE" stroke-width="0.25" stroke-linecap="round" stroke-linejoin="round" stroke-miterlimit="10" x1="29.8" y1="6.3" x2="29" y2="5.5"/>
		
			<line fill="none" stroke="#1E5AFE" stroke-width="0.25" stroke-linecap="round" stroke-linejoin="round" stroke-miterlimit="10" x1="29" y1="6.3" x2="29.8" y2="5.5"/>
	</g>
	<g>
		
			<line fill="none" stroke="#1E5AFE" stroke-width="0.25" stroke-linecap="round" stroke-linejoin="round" stroke-miterlimit="10" x1="20.4" y1="10.4" x2="19.6" y2="9.6"/>
		
			<line fill="none" stroke="#1E5AFE" stroke-width="0.25" stroke-linecap="round" stroke-linejoin="round" stroke-miterlimit="10" x1="19.6" y1="10.4" x2="20.3" y2="9.6"/>
	</g>
	<g>
		
			<line fill="none" stroke="#1E5AFE" stroke-width="0.25" stroke-linecap="round" stroke-linejoin="round" stroke-miterlimit="10" x1="24.3" y1="19.3" x2="23.5" y2="18.5"/>
		
			<line fill="none" stroke="#1E5AFE" stroke-width="0.25" stroke-linecap="round" stroke-linejoin="round" stroke-miterlimit="10" x1="23.5" y1="19.3" x2="24.3" y2="18.5"/>
	</g>
	<g>
		
			<line fill="none" stroke="#1E5AFE" stroke-width="0.25" stroke-linecap="round" stroke-linejoin="round" stroke-miterlimit="10" x1="23.7" y1="26.6" x2="22.9" y2="25.8"/>
		
			<line fill="none" stroke="#1E5AFE" stroke-width="0.25" stroke-linecap="round" stroke-linejoin="round" stroke-miterlimit="10" x1="22.9" y1="26.6" x2="23.7" y2="25.8"/>
	</g>
	
		<polygon fill="none" stroke="#1E5AFE" stroke-width="0.25" stroke-linecap="round" stroke-linejoin="round" stroke-miterlimit="10" points="
		16.4,7.5 15.9,6.6 15.3,7.5 14.8,8.5 15.9,8.5 17,8.5 	"/>
	
		<polygon fill="none" stroke="#1E5AFE" stroke-width="0.25" stroke-linecap="round" stroke-linejoin="round" stroke-miterlimit="10" points="
		14.7,19.2 14.1,18.3 13.6,19.2 13,20.2 14.1,20.2 15.2,20.2 	"/>
	
		<polygon fill="none" stroke="#1E5AFE" stroke-width="0.25" stroke-linecap="round" stroke-linejoin="round" stroke-miterlimit="10" points="
		21,22.8 20.4,21.8 19.9,22.8 19.3,23.7 20.4,23.7 21.6,23.7 	"/>
	
		<polygon fill="none" stroke="#1E5AFE" stroke-width="0.25" stroke-linecap="round" stroke-linejoin="round" stroke-miterlimit="10" points="
		24.6,15.4 24.9,14.4 23.8,14.7 22.8,14.9 23.5,15.7 24.3,16.5 	"/>
	
		<polygon fill="none" stroke="#1E5AFE" stroke-width="0.25" stroke-linecap="round" stroke-linejoin="round" stroke-miterlimit="10" points="
		6.4,3.1 6.7,2.1 5.7,2.4 4.6,2.7 5.4,3.4 6.2,4.2 	"/>
	
		<polygon fill="none" stroke="#1E5AFE" stroke-width="0.25" stroke-linecap="round" stroke-linejoin="round" stroke-miterlimit="10" points="
		5.8,26.1 6.1,25.1 5,25.4 3.9,25.7 4.7,26.4 5.5,27.2 	"/>
	
		<polygon fill="none" stroke="#1E5AFE" stroke-width="0.25" stroke-linecap="round" stroke-linejoin="round" stroke-miterlimit="10" points="
		25.7,4.3 26.6,3.7 25.7,3.2 24.7,2.6 24.7,3.7 24.7,4.8 	"/>
	
		<polygon fill="none" stroke="#1E5AFE" stroke-width="0.25" stroke-linecap="round" stroke-linejoin="round" stroke-miterlimit="10" points="
		5.7,15.3 6.7,14.8 5.7,14.2 4.7,13.7 4.7,14.8 4.8,15.9 	"/>
	
		<path fill="none" stroke="#1E5AFE" stroke-width="0.25" stroke-linecap="round" stroke-linejoin="round" stroke-miterlimit="10" d="
		M18.3,13.5c0,0.5-0.4,0.8-0.8,0.8c-0.5,0-0.8-0.4-0.8-0.8c0-0.5,0.4-0.8,0.8-0.8C17.9,12.7,18.3,13,18.3,13.5z"/>
	
		<path fill="none" stroke="#1E5AFE" stroke-width="0.25" stroke-linecap="round" stroke-linejoin="round" stroke-miterlimit="10" d="
		M14.1,4.2c0,0.5-0.4,0.8-0.8,0.8c-0.5,0-0.8-0.4-0.8-0.8c0-0.5,0.4-0.8,0.8-0.8C13.7,3.3,14.1,3.7,14.1,4.2z"/>
	
		<path fill="none" stroke="#1E5AFE" stroke-width="0.25" stroke-linecap="round" stroke-linejoin="round" stroke-miterlimit="10" d="
		M14.7,28.8c0,0.5-0.4,0.8-0.8,0.8c-0.5,0-0.8-0.4-0.8-0.8c0-0.5,0.4-0.8,0.8-0.8C14.3,28,14.7,28.4,14.7,28.8z"/>
	
		<path fill="none" stroke="#1E5AFE" stroke-width="0.25" stroke-linecap="round" stroke-linejoin="round" stroke-miterlimit="10" d="
		M16.9,27.6c0-0.5,0.4-0.8,0.8-0.8c0.5,0,0.8,0.4,0.8,0.8"/>
	
		<path fill="none" stroke="#1E5AFE" stroke-width="0.25" stroke-linecap="round" stroke-linejoin="round" stroke-miterlimit="10" d="
		M10.2,14.8c0-0.5,0.4-0.8,0.8-0.8c0.5,0,0.8,0.4,0.8,0.8"/>
	
		<path fill="none" stroke="#1E5AFE" stroke-width="0.25" stroke-linecap="round" stroke-linejoin="round" stroke-miterlimit="10" d="
		M1.4,8c0-0.5,0.4-0.8,0.8-0.8C2.7,7.2,3,7.5,3,8"/>
	
		<path fill="none" stroke="#1E5AFE" stroke-width="0.25" stroke-linecap="round" stroke-linejoin="round" stroke-miterlimit="10" d="
		M22.5,9.3c-0.5,0-0.8-0.4-0.8-0.8c0-0.5,0.4-0.8,0.8-0.8"/>
	
		<path fill="none" stroke="#1E5AFE" stroke-width="0.25" stroke-linecap="round" stroke-linejoin="round" stroke-miterlimit="10" d="
		M2.4,28.9c-0.5,0-0.8-0.4-0.8-0.8c0-0.5,0.4-0.8,0.8-0.8"/>
	
		<path fill="none" stroke="#1E5AFE" stroke-width="0.25" stroke-linecap="round" stroke-linejoin="round" stroke-miterlimit="10" d="
		M11.3,2.3c-0.5,0-0.8-0.4-0.8-0.8c0-0.5,0.4-0.8,0.8-0.8"/>
	
		<path fill="none" stroke="#1E5AFE" stroke-width="0.25" stroke-linecap="round" stroke-linejoin="round" stroke-miterlimit="10" d="
		M2.8,20.1c0,0.5-0.4,0.8-0.8,0.8s-0.8-0.4-0.8-0.8c0-0.5,0.4-0.8,0.8-0.8S2.8,19.6,2.8,20.1z"/>
	
		<path fill="none" stroke="#1E5AFE" stroke-width="0.25" stroke-linecap="round" stroke-linejoin="round" stroke-miterlimit="10" d="
		M28.6,20.9c0,0.5-0.4,0.8-0.8,0.8c-0.5,0-0.8-0.4-0.8-0.8c0-0.5,0.4-0.8,0.8-0.8C28.2,20.1,28.6,20.5,28.6,20.9z"/>
	
		<rect x="26.2" y="7.6" transform="matrix(1 -3.876037e-03 3.876037e-03 1 -3.256581e-02 0.1049)" fill="none" stroke="#1E5AFE" stroke-width="0.25" stroke-linecap="round" stroke-linejoin="round" stroke-miterlimit="10" width="1.7" height="1.7"/>
	
		<rect x="7.4" y="8.5" transform="matrix(1 -3.876037e-03 3.876037e-03 1 -3.621249e-02 3.201960e-02)" fill="none" stroke="#1E5AFE" stroke-width="0.25" stroke-linecap="round" stroke-linejoin="round" stroke-miterlimit="10" width="1.7" height="1.7"/>
	
		<rect x="7.4" y="19.1" transform="matrix(1 -3.876037e-03 3.876037e-03 1 -7.736593e-02 3.193532e-02)" fill="none" stroke="#1E5AFE" stroke-width="0.25" stroke-linecap="round" stroke-linejoin="round" stroke-miterlimit="10" width="1.7" height="1.7"/>
	
		<rect x="26.3" y="27.1" transform="matrix(1 -3.876037e-03 3.876037e-03 1 -0.1082 0.1053)" fill="none" stroke="#1E5AFE" stroke-width="0.25" stroke-linecap="round" stroke-linejoin="round" stroke-miterlimit="10" width="1.7" height="1.7"/>
	
		<rect x="19.3" y="0.6" transform="matrix(1 -3.876037e-03 3.876037e-03 1 -5.267086e-03 7.798105e-02)" fill="none" stroke="#1E5AFE" stroke-width="0.25" stroke-linecap="round" stroke-linejoin="round" stroke-miterlimit="10" width="1.7" height="1.7"/>
	<g>
		
			<path fill="none" stroke="#1E5AFE" stroke-width="0.25" stroke-linecap="round" stroke-linejoin="round" stroke-miterlimit="10" d="
			M17,17.5c-0.4,0-0.3-0.6-0.8-0.6"/>
		
			<path fill="none" stroke="#1E5AFE" stroke-width="0.25" stroke-linecap="round" stroke-linejoin="round" stroke-miterlimit="10" d="
			M18.5,17.5c-0.4,0-0.3-0.6-0.8-0.6"/>
		
			<path fill="none" stroke="#1E5AFE" stroke-width="0.25" stroke-linecap="round" stroke-linejoin="round" stroke-miterlimit="10" d="
			M17,17.5c0.4,0,0.3-0.6,0.8-0.6"/>
		
			<path fill="none" stroke="#1E5AFE" stroke-width="0.25" stroke-linecap="round" stroke-linejoin="round" stroke-miterlimit="10" d="
			M19.2,16.8"/>
		
			<path fill="none" stroke="#1E5AFE" stroke-width="0.25" stroke-linecap="round" stroke-linejoin="round" stroke-miterlimit="10" d="
			M18.5,17.5c0.4,0,0.3-0.6,0.8-0.6"/>
	</g>
	<g>
		
			<path fill="none" stroke="#1E5AFE" stroke-width="0.25" stroke-linecap="round" stroke-linejoin="round" stroke-miterlimit="10" d="
			M21.4,29.5c-0.4,0-0.3-0.6-0.8-0.6"/>
		
			<path fill="none" stroke="#1E5AFE" stroke-width="0.25" stroke-linecap="round" stroke-linejoin="round" stroke-miterlimit="10" d="
			M22.9,29.5c-0.4,0-0.3-0.6-0.8-0.6"/>
		
			<path fill="none" stroke="#1E5AFE" stroke-width="0.25" stroke-linecap="round" stroke-linejoin="round" stroke-miterlimit="10" d="
			M21.4,29.5c0.4,0,0.3-0.6,0.8-0.6"/>
		
			<path fill="none" stroke="#1E5AFE" stroke-width="0.25" stroke-linecap="round" stroke-linejoin="round" stroke-miterlimit="10" d="
			M23.6,28.8"/>
		
			<path fill="none" stroke="#1E5AFE" stroke-width="0.25" stroke-linecap="round" stroke-linejoin="round" stroke-miterlimit="10" d="
			M22.9,29.5c0.4,0,0.3-0.6,0.8-0.6"/>
	</g>
	<g>
		
			<path fill="none" stroke="#1E5AFE" stroke-width="0.25" stroke-linecap="round" stroke-linejoin="round" stroke-miterlimit="10" d="
			M23.4,12.2c-0.4,0-0.3-0.6-0.8-0.6"/>
		
			<path fill="none" stroke="#1E5AFE" stroke-width="0.25" stroke-linecap="round" stroke-linejoin="round" stroke-miterlimit="10" d="
			M24.9,12.2c-0.4,0-0.3-0.6-0.8-0.6"/>
		
			<path fill="none" stroke="#1E5AFE" stroke-width="0.25" stroke-linecap="round" stroke-linejoin="round" stroke-miterlimit="10" d="
			M23.4,12.2c0.4,0,0.3-0.6,0.8-0.6"/>
		
			<path fill="none" stroke="#1E5AFE" stroke-width="0.25" stroke-linecap="round" stroke-linejoin="round" stroke-miterlimit="10" d="
			M25.7,11.5"/>
		
			<path fill="none" stroke="#1E5AFE" stroke-width="0.25" stroke-linecap="round" stroke-linejoin="round" stroke-miterlimit="10" d="
			M24.9,12.2c0.4,0,0.3-0.6,0.8-0.6"/>
	</g>
	<g>
		
			<path fill="none" stroke="#1E5AFE" stroke-width="0.25" stroke-linecap="round" stroke-linejoin="round" stroke-miterlimit="10" d="
			M2.1,11.5c-0.4,0-0.3-0.6-0.8-0.6"/>
		
			<path fill="none" stroke="#1E5AFE" stroke-width="0.25" stroke-linecap="round" stroke-linejoin="round" stroke-miterlimit="10" d="
			M3.7,11.5c-0.4,0-0.3-0.6-0.8-0.6"/>
		
			<path fill="none" stroke="#1E5AFE" stroke-width="0.25" stroke-linecap="round" stroke-linejoin="round" stroke-miterlimit="10" d="
			M2.1,11.5c0.4,0,0.3-0.6,0.8-0.6"/>
		
			<path fill="none" stroke="#1E5AFE" stroke-width="0.25" stroke-linecap="round" stroke-linejoin="round" stroke-miterlimit="10" d="
			M4.4,10.8"/>
		
			<path fill="none" stroke="#1E5AFE" stroke-width="0.25" stroke-linecap="round" stroke-linejoin="round" stroke-miterlimit="10" d="
			M3.7,11.5c0.4,0,0.3-0.6,0.8-0.6"/>
	</g>
	<g>
		
			<path fill="none" stroke="#1E5AFE" stroke-width="0.25" stroke-linecap="round" stroke-linejoin="round" stroke-miterlimit="10" d="
			M17,2.8c0,0.4-0.6,0.3-0.6,0.8"/>
		
			<path fill="none" stroke="#1E5AFE" stroke-width="0.25" stroke-linecap="round" stroke-linejoin="round" stroke-miterlimit="10" d="
			M17,1.3c0,0.4-0.6,0.3-0.6,0.8"/>
		
			<path fill="none" stroke="#1E5AFE" stroke-width="0.25" stroke-linecap="round" stroke-linejoin="round" stroke-miterlimit="10" d="
			M17,2.8c0-0.4-0.6-0.3-0.6-0.8"/>
		
			<path fill="none" stroke="#1E5AFE" stroke-width="0.25" stroke-linecap="round" stroke-linejoin="round" stroke-miterlimit="10" d="
			M16.4,0.5"/>
		
			<path fill="none" stroke="#1E5AFE" stroke-width="0.25" stroke-linecap="round" stroke-linejoin="round" stroke-miterlimit="10" d="
			M17,1.3c0-0.4-0.6-0.3-0.6-0.8"/>
	</g>
	<g>
		
			<path fill="none" stroke="#1E5AFE" stroke-width="0.25" stroke-linecap="round" stroke-linejoin="round" stroke-miterlimit="10" d="
			M12.4,10.8c0,0.4-0.6,0.3-0.6,0.8"/>
		
			<path fill="none" stroke="#1E5AFE" stroke-width="0.25" stroke-linecap="round" stroke-linejoin="round" stroke-miterlimit="10" d="
			M12.4,9.3c0,0.4-0.6,0.3-0.6,0.8"/>
		
			<path fill="none" stroke="#1E5AFE" stroke-width="0.25" stroke-linecap="round" stroke-linejoin="round" stroke-miterlimit="10" d="
			M12.4,10.8c0-0.4-0.6-0.3-0.6-0.8"/>
		
			<path fill="none" stroke="#1E5AFE" stroke-width="0.25" stroke-linecap="round" stroke-linejoin="round" stroke-miterlimit="10" d="
			M11.7,8.5"/>
		
			<path fill="none" stroke="#1E5AFE" stroke-width="0.25" stroke-linecap="round" stroke-linejoin="round" stroke-miterlimit="10" d="
			M12.4,9.3c0-0.4-0.6-0.3-0.6-0.8"/>
	</g>
	<g>
		
			<path fill="none" stroke="#1E5AFE" stroke-width="0.25" stroke-linecap="round" stroke-linejoin="round" stroke-miterlimit="10" d="
			M25.1,23.5c0,0.4-0.6,0.3-0.6,0.8"/>
		
			<path fill="none" stroke="#1E5AFE" stroke-width="0.25" stroke-linecap="round" stroke-linejoin="round" stroke-miterlimit="10" d="
			M25.1,22c0,0.4-0.6,0.3-0.6,0.8"/>
		
			<path fill="none" stroke="#1E5AFE" stroke-width="0.25" stroke-linecap="round" stroke-linejoin="round" stroke-miterlimit="10" d="
			M25.1,23.5c0-0.4-0.6-0.3-0.6-0.8"/>
		
			<path fill="none" stroke="#1E5AFE" stroke-width="0.25" stroke-linecap="round" stroke-linejoin="round" stroke-miterlimit="10" d="
			M24.5,21.2"/>
		
			<path fill="none" stroke="#1E5AFE" stroke-width="0.25" stroke-linecap="round" stroke-linejoin="round" stroke-miterlimit="10" d="
			M25.1,22c0-0.4-0.6-0.3-0.6-0.8"/>
	</g>
	<g>
		
			<path fill="none" stroke="#1E5AFE" stroke-width="0.25" stroke-linecap="round" stroke-linejoin="round" stroke-miterlimit="10" d="
			M9.4,24.8c0,0.4-0.6,0.3-0.6,0.8"/>
		
			<path fill="none" stroke="#1E5AFE" stroke-width="0.25" stroke-linecap="round" stroke-linejoin="round" stroke-miterlimit="10" d="
			M9.4,23.3c0,0.4-0.6,0.3-0.6,0.8"/>
		
			<path fill="none" stroke="#1E5AFE" stroke-width="0.25" stroke-linecap="round" stroke-linejoin="round" stroke-miterlimit="10" d="
			M9.4,24.8c0-0.4-0.6-0.3-0.6-0.8"/>
		
			<path fill="none" stroke="#1E5AFE" stroke-width="0.25" stroke-linecap="round" stroke-linejoin="round" stroke-miterlimit="10" d="
			M8.7,22.5"/>
		
			<path fill="none" stroke="#1E5AFE" stroke-width="0.25" stroke-linecap="round" stroke-linejoin="round" stroke-miterlimit="10" d="
			M9.4,23.3c0-0.4-0.6-0.3-0.6-0.8"/>
	</g>
	
		<line fill="none" stroke="#1E5AFE" stroke-width="0.25" stroke-linecap="round" stroke-linejoin="round" stroke-miterlimit="10" x1="18.8" y1="19.2" x2="20.7" y2="19.2"/>
	
		<line fill="none" stroke="#1E5AFE" stroke-width="0.25" stroke-linecap="round" stroke-linejoin="round" stroke-miterlimit="10" x1="0.2" y1="13.8" x2="2.1" y2="13.8"/>
	
		<line fill="none" stroke="#1E5AFE" stroke-width="0.25" stroke-linecap="round" stroke-linejoin="round" stroke-miterlimit="10" x1="18.9" y1="5" x2="20.8" y2="5"/>
	
		<line fill="none" stroke="#1E5AFE" stroke-width="0.25" stroke-linecap="round" stroke-linejoin="round" stroke-miterlimit="10" x1="26.3" y1="0.7" x2="28.2" y2="0.7"/>
	
		<line fill="none" stroke="#1E5AFE" stroke-width="0.25" stroke-linecap="round" stroke-linejoin="round" stroke-miterlimit="10" x1="7.8" y1="28.9" x2="9.7" y2="28.9"/>
	
		<line fill="none" stroke="#1E5AFE" stroke-width="0.25" stroke-linecap="round" stroke-linejoin="round" stroke-miterlimit="10" x1="12.6" y1="25.2" x2="14" y2="23.9"/>
	
		<line fill="none" stroke="#1E5AFE" stroke-width="0.25" stroke-linecap="round" stroke-linejoin="round" stroke-miterlimit="10" x1="1.5" y1="2.1" x2="2.9" y2="0.8"/>
	
		<line fill="none" stroke="#1E5AFE" stroke-width="0.25" stroke-linecap="round" stroke-linejoin="round" stroke-miterlimit="10" x1="27.3" y1="15.7" x2="28.6" y2="14.4"/>
	
		<path fill="none" stroke="#1E5AFE" stroke-width="0.25" stroke-linecap="round" stroke-linejoin="round" stroke-miterlimit="10" d="
		M17.4,23.7c-0.2,0.1-0.4,0.1-0.5-0.1c-0.1-0.2-0.1-0.4,0.1-0.5c0.2-0.1,0.4-0.1,0.5,0.1C17.6,23.4,17.6,23.6,17.4,23.7z"/>
	
		<path fill="none" stroke="#1E5AFE" stroke-width="0.25" stroke-linecap="round" stroke-linejoin="round" stroke-miterlimit="10" d="
		M14.8,14.6c-0.2,0.1-0.4,0.1-0.5-0.1c-0.1-0.2-0.1-0.4,0.1-0.5c0.2-0.1,0.4-0.1,0.5,0.1C15,14.3,15,14.5,14.8,14.6z"/>
	
		<path fill="none" stroke="#1E5AFE" stroke-width="0.25" stroke-linecap="round" stroke-linejoin="round" stroke-miterlimit="10" d="
		M3,17.4c-0.2,0.1-0.4,0.1-0.5-0.1c-0.1-0.2-0.1-0.4,0.1-0.5C2.8,16.8,3,16.8,3.1,17C3.2,17.1,3.1,17.3,3,17.4z"/>
	
		<path fill="none" stroke="#1E5AFE" stroke-width="0.25" stroke-linecap="round" stroke-linejoin="round" stroke-miterlimit="10" d="
		M6.3,7.1C6.1,7.2,5.9,7.1,5.8,7C5.7,6.8,5.8,6.6,5.9,6.5c0.2-0.1,0.4-0.1,0.5,0.1C6.5,6.8,6.4,7,6.3,7.1z"/>
	
		<path fill="none" stroke="#1E5AFE" stroke-width="0.25" stroke-linecap="round" stroke-linejoin="round" stroke-miterlimit="10" d="
		M24.4,6.8c-0.2,0.1-0.4,0.1-0.5-0.1c-0.1-0.2-0.1-0.4,0.1-0.5c0.2-0.1,0.4-0.1,0.5,0.1C24.6,6.5,24.6,6.7,24.4,6.8z"/>
	
		<path fill="none" stroke="#1E5AFE" stroke-width="0.25" stroke-linecap="round" stroke-linejoin="round" stroke-miterlimit="10" d="
		M29.1,18.5c-0.2,0.1-0.4,0.1-0.5-0.1c-0.1-0.2-0.1-0.4,0.1-0.5c0.2-0.1,0.4-0.1,0.5,0.1C29.3,18.2,29.3,18.5,29.1,18.5z"/>
</g>
</svg>
