<svg xmlns="http://www.w3.org/2000/svg" width="204" height="192" viewBox="0 0 204 192"><g transform="translate(-382.813 -263.678)"><g transform="translate(383 264)"><rect width="21" height="3" rx="1.5" transform="translate(-0.187 8.678)" fill="#14151d"/><rect width="21" height="3" rx="1.5" transform="translate(8.813 20.678) rotate(-90)" fill="#14151d"/></g><g transform="translate(429.268 264)"><rect width="21" height="3" rx="1.5" transform="translate(-0.454 8.678)" fill="#14151d"/><rect width="21" height="3" rx="1.5" transform="translate(8.546 20.678) rotate(-90)" fill="#14151d"/></g><g transform="translate(474.407 264)"><rect width="21" height="3" rx="1.5" transform="translate(0.407 8.678)" fill="#14151d"/><rect width="21" height="3" rx="1.5" transform="translate(9.407 20.678) rotate(-90)" fill="#14151d"/></g><g transform="translate(520.674 264)"><rect width="21" height="3" rx="1.5" transform="translate(0.139 8.678)" fill="#14151d"/><rect width="21" height="3" rx="1.5" transform="translate(9.139 20.678) rotate(-90)" fill="#14151d"/></g><g transform="translate(565.813 264)"><rect width="21" height="3" rx="1.5" transform="translate(0 8.678)" fill="#14151d"/><rect width="21" height="3" rx="1.5" transform="translate(9 20.678) rotate(-90)" fill="#14151d"/></g><g transform="translate(383 306.116)"><rect width="21" height="3" rx="1.5" transform="translate(-0.187 8.563)" fill="#14151d"/><rect width="21" height="3" rx="1.5" transform="translate(8.813 20.563) rotate(-90)" fill="#14151d"/></g><g transform="translate(429.268 306.116)"><rect width="21" height="3" rx="1.5" transform="translate(-0.454 8.563)" fill="#14151d"/><rect width="21" height="3" rx="1.5" transform="translate(8.546 20.563) rotate(-90)" fill="#14151d"/></g><g transform="translate(474.407 306.116)"><rect width="21" height="3" rx="1.5" transform="translate(0.407 8.563)" fill="#14151d"/><rect width="21" height="3" rx="1.5" transform="translate(9.407 20.563) rotate(-90)" fill="#14151d"/></g><g transform="translate(520.674 306.116)"><rect width="21" height="3" rx="1.5" transform="translate(0.139 8.563)" fill="#14151d"/><rect width="21" height="3" rx="1.5" transform="translate(9.139 20.563) rotate(-90)" fill="#14151d"/></g><g transform="translate(565.813 306.116)"><rect width="21" height="3" rx="1.5" transform="translate(0 8.563)" fill="#14151d"/><rect width="21" height="3" rx="1.5" transform="translate(9 20.563) rotate(-90)" fill="#14151d"/></g><g transform="translate(383 349.339)"><rect width="21" height="3" rx="1.5" transform="translate(-0.187 9.338)" fill="#14151d"/><rect width="21" height="3" rx="1.5" transform="translate(8.813 21.338) rotate(-90)" fill="#14151d"/></g><g transform="translate(429.268 349.339)"><rect width="21" height="3" rx="1.5" transform="translate(-0.454 9.338)" fill="#14151d"/><rect width="21" height="3" rx="1.5" transform="translate(8.546 21.338) rotate(-90)" fill="#14151d"/></g><g transform="translate(474.407 349.339)"><rect width="21" height="3" rx="1.5" transform="translate(0.407 9.338)" fill="#14151d"/><rect width="21" height="3" rx="1.5" transform="translate(9.407 21.338) rotate(-90)" fill="#14151d"/></g><g transform="translate(520.674 349.339)"><rect width="21" height="3" rx="1.5" transform="translate(0.139 9.338)" fill="#14151d"/><rect width="21" height="3" rx="1.5" transform="translate(9.139 21.338) rotate(-90)" fill="#14151d"/></g><g transform="translate(565.813 349.339)"><rect width="21" height="3" rx="1.5" transform="translate(0 9.338)" fill="#14151d"/><rect width="21" height="3" rx="1.5" transform="translate(9 21.338) rotate(-90)" fill="#14151d"/></g><g transform="translate(383 391.454)"><rect width="21" height="3" rx="1.5" transform="translate(-0.187 9.224)" fill="#14151d"/><rect width="21" height="3" rx="1.5" transform="translate(8.813 21.224) rotate(-90)" fill="#14151d"/></g><g transform="translate(429.268 391.454)"><rect width="21" height="3" rx="1.5" transform="translate(-0.454 9.224)" fill="#14151d"/><rect width="21" height="3" rx="1.5" transform="translate(8.546 21.224) rotate(-90)" fill="#14151d"/></g><g transform="translate(474.407 391.454)"><rect width="21" height="3" rx="1.5" transform="translate(0.407 9.224)" fill="#14151d"/><rect width="21" height="3" rx="1.5" transform="translate(9.407 21.224) rotate(-90)" fill="#14151d"/></g><g transform="translate(520.674 391.454)"><rect width="21" height="3" rx="1.5" transform="translate(0.139 9.224)" fill="#3269ff"/><rect width="21" height="3" rx="1.5" transform="translate(9.139 21.224) rotate(-90)" fill="#3269ff"/></g><g transform="translate(565.813 391.454)"><rect width="21" height="3" rx="1.5" transform="translate(0 9.224)" fill="#14151d"/><rect width="21" height="3" rx="1.5" transform="translate(9 21.224) rotate(-90)" fill="#14151d"/></g><g transform="translate(383 434.678)"><rect width="21" height="3" rx="1.5" transform="translate(-0.187 9)" fill="#14151d"/><rect width="21" height="3" rx="1.5" transform="translate(8.813 21) rotate(-90)" fill="#14151d"/></g><g transform="translate(429.268 434.678)"><rect width="21" height="3" rx="1.5" transform="translate(-0.454 9)" fill="#14151d"/><rect width="21" height="3" rx="1.5" transform="translate(8.546 21) rotate(-90)" fill="#14151d"/></g><g transform="translate(474.407 434.678)"><rect width="21" height="3" rx="1.5" transform="translate(0.407 9)" fill="#14151d"/><rect width="21" height="3" rx="1.5" transform="translate(9.407 21) rotate(-90)" fill="#14151d"/></g><g transform="translate(520.674 434.678)"><rect width="21" height="3" rx="1.5" transform="translate(0.139 9)" fill="#14151d"/><rect width="21" height="3" rx="1.5" transform="translate(9.139 21) rotate(-90)" fill="#14151d"/></g><g transform="translate(565.813 434.678)"><rect width="21" height="3" rx="1.5" transform="translate(0 9)" fill="#14151d"/><rect width="21" height="3" rx="1.5" transform="translate(9 21) rotate(-90)" fill="#14151d"/></g></g></svg>